# Blender v2.73 (sub 0) OBJ File: ''
# www.blender.org
v -1.512522 4.185442 -0.211762
v 1.282435 4.274625 -0.204679
v -0.467174 3.694496 0.655241
v 0.685976 4.033004 -0.792704
v 1.599237 3.346563 1.016574
v 1.739911 3.948888 -0.824704
v 3.466059 3.335248 0.758861
v 2.282150 3.882042 -0.487659
v 4.510090 3.896427 -0.013023
v 7.714169 2.596119 0.775198
v 4.446831 3.704756 0.759019
v 4.353699 3.699435 -0.860973
v 8.134155 2.141661 1.262657
v 6.720426 1.133598 1.262905
v 6.294121 1.014133 0.473339
v 7.500598 1.399474 -0.472668
v 9.059414 1.193189 0.193036
v 10.127260 0.123637 0.309165
v 9.808609 0.469124 1.563190
v 8.591846 -0.240011 0.581876
v 10.113640 -0.179617 1.539197
v 7.977464 0.758512 1.367496
v 9.396741 -0.101028 1.947247
v 9.407234 -0.032599 0.296046
v -2.754991 2.938318 -0.360105
v -2.075674 3.929781 0.576089
v -8.283383 0.486004 0.313563
v -5.158449 2.324013 -0.767946
v -4.407869 2.587480 1.573014
v -3.520243 1.805663 0.266324
v -4.395214 1.536049 0.226065
v -9.031181 0.832504 1.380690
v -6.638633 0.842357 1.050773
v -9.011063 0.163115 2.281779
v -0.603410 4.052849 0.440748
v 2.481587 3.859652 0.540489
v 1.483973 2.634802 0.850210
v 6.245247 2.889738 -0.343863
v 3.558862 3.164458 -0.972998
v 3.621178 2.104269 -0.198736
v 7.317959 2.494548 -0.476798
v 1.752571 2.626412 -0.582043
v 5.476827 1.855986 0.842953
v 5.632621 2.107240 -0.589976
v 6.050839 2.791731 0.795351
v 7.908659 0.656822 0.813726
v 8.241379 -0.064910 1.524183
v -0.867587 3.614773 -0.741268
v -6.119221 3.092834 0.615012
v -3.420005 3.622882 0.722938
v -2.648040 2.848254 0.243631
v -7.880398 1.506729 0.397366
v -4.887556 1.552908 1.468837
v -7.368889 1.651484 1.453688
v -9.618085 0.339968 0.662107
v -9.593289 -0.389552 1.990105
v -6.758651 1.012754 1.623722
v -7.531467 0.693541 2.000939
v -8.313108 -0.986855 1.931619
v -9.821783 -0.772267 1.343450
v -8.633842 -1.146908 0.876725
v -7.435383 -0.718597 1.374005
v -0.016928 2.949057 -0.709927
v 2.532799 2.904754 -0.565222
v 8.504700 1.940155 0.457403
v -3.013298 3.709684 -0.235426
v -2.713784 3.478154 -0.459471
v -4.890068 3.148773 -0.437692
v 0.556255 2.694281 0.823002
v 2.490313 3.063485 0.520345
v -1.067132 2.954015 0.547618
v -4.120934 1.850835 -0.717401
v -6.595589 2.489372 -0.108511
v -7.692959 -0.033428 0.430167
v -3.437572 2.003393 1.117829
v -5.413052 3.232697 1.483666
v -6.831835 0.853458 0.242639
v 1.947983 2.870600 -0.799078
v 4.306886 2.028117 -0.851371
v 5.281166 1.644267 -0.202642
v 8.288561 0.768005 0.210963
v -2.785070 2.993858 0.666825
v -6.875880 -0.090054 1.836353
v 0.974824 4.131577 0.792529
v 3.871254 2.211418 0.727152
v 8.149231 2.057079 -0.371929
v 8.861007 1.369203 1.253204
v -1.123403 4.054035 -0.630983
v 6.495583 1.065153 -0.392790
vn -0.075800 0.990000 0.118600
vn 0.011200 0.999900 -0.004300
vn -0.216200 0.439600 0.871800
vn -0.089200 -0.018200 -0.995800
vn -0.032700 -0.030100 -0.999000
vn 0.281600 -0.753400 -0.594200
vn 0.223700 0.427900 0.875700
vn 0.482400 -0.016900 0.875800
vn -0.209100 -0.102800 0.972500
vn 0.441400 0.852700 -0.279500
vn -0.161900 0.338800 -0.926800
vn -0.535600 -0.810100 0.238400
vn 0.098100 0.768600 0.632100
vn 0.004700 0.047900 0.998800
vn -0.084700 -0.058600 0.994700
vn 0.194100 -0.011100 -0.980900
vn 0.291500 0.071800 -0.953900
vn 0.719600 0.675200 0.162200
vn -0.253100 0.935700 -0.245900
vn -0.217800 0.182400 0.958800
vn -0.150600 0.211500 0.965700
vn -0.339400 -0.438500 -0.832200
vn -0.557700 -0.721600 0.410300
vn -0.058300 0.082000 0.994900
vn 0.083000 0.066000 0.994400
vn 0.273100 -0.529000 -0.803500
vn 0.150500 -0.633700 -0.758800
vn 0.708400 0.705700 -0.014400
vn 0.900700 0.419300 0.113400
vn 0.212700 -0.972100 -0.098600
vn -0.086100 -0.984800 0.151000
vn 0.184700 -0.954700 -0.233300
vn -0.341100 0.069100 0.937500
vn -0.060500 0.267500 0.961700
vn 0.034600 0.522900 0.851700
vn -0.041700 -0.177800 -0.983200
vn -0.123300 -0.203300 -0.971300
vn 0.070200 0.043400 0.996600
vn 0.059200 0.243700 -0.968000
vn -0.014600 -0.989300 -0.145000
vn -0.181600 -0.097700 0.978500
vn -0.667200 0.709800 0.225800
vn 0.006000 -0.212500 -0.977100
vn -0.331700 0.441700 -0.833600
vn 0.296400 -0.928500 -0.223600
vn 0.324800 -0.935200 0.141300
vn -0.565100 0.819000 -0.099800
vn -0.409700 0.067300 -0.909700
vn -0.154700 -0.433900 -0.887600
vn -0.009900 -0.095600 0.995400
vn 0.260600 -0.936000 -0.236500
vn 0.287000 -0.900100 0.327800
vn 0.512300 -0.622500 -0.591700
vn 0.353300 0.934300 -0.048200
vn 0.206400 0.957600 0.201000
vn -0.168300 -0.006900 0.985700
vn -0.142900 0.164900 0.975900
vn 0.428100 -0.891700 0.147100
vn 0.049100 0.968400 0.244500
vn 0.043500 0.971300 -0.233700
vn 0.474900 0.844200 0.248500
vn -0.457900 -0.800000 -0.387700
vn -0.060300 -0.635700 -0.769600
vn 0.781100 0.616000 -0.101600
vn 0.741100 0.631300 -0.228600
vn -0.006000 0.304300 -0.952600
vn 0.134800 0.018800 -0.990700
vn -0.073900 -0.016100 -0.997100
vn -0.630800 -0.729000 0.265700
vn -0.194300 -0.975600 -0.102700
vn -0.295500 -0.932400 0.207900
vn -0.213400 -0.393300 -0.894300
vn 0.034200 -0.074000 -0.996700
vn -0.803900 -0.562100 -0.194500
vn -0.301300 0.952600 -0.041600
vn 0.000700 -0.945500 0.325500
vn 0.230500 0.476600 0.848400
vn 0.838600 -0.370700 0.399100
vn 0.630600 -0.655700 -0.415200
vn 0.765700 -0.638900 0.074000
vn -0.726600 0.543700 0.420100
vn 0.004500 0.261200 0.965300
vn 0.233400 0.452200 0.860800
vn -0.013800 0.497800 0.867200
vn 0.973200 -0.060700 0.221900
vn 0.886300 -0.408800 -0.217500
vn -0.327800 -0.757700 0.564300
vn -0.084400 -0.308600 -0.947400
vn -0.442400 -0.408100 -0.798500
vn 0.179600 -0.185200 0.966200
vn 0.319000 -0.946600 0.046700
vn 0.499700 -0.755900 0.422900
vn 0.478000 -0.643600 -0.597700
vn 0.216100 0.970800 -0.103800
vn -0.055300 0.960600 0.272200
vn 0.357900 0.418100 -0.834900
vn -0.089000 0.235900 0.967700
vn -0.262300 -0.948000 0.180500
vn 0.596800 0.789300 -0.144500
vn -0.262300 0.474000 -0.840500
vn 0.104700 0.017000 0.994400
vn 0.017800 -0.182300 -0.983100
vn -0.267100 0.183100 -0.946100
vn -0.076700 0.111600 -0.990800
vn -0.063800 -0.997900 -0.006100
vn 0.058900 0.901000 -0.429900
vn -0.184100 0.960700 -0.207900
vn -0.047100 -0.045700 -0.997800
vn 0.401700 -0.269600 0.875200
vn 0.533400 0.082900 -0.841800
vn -0.226200 -0.945600 0.233800
vn 0.149900 -0.960500 -0.234600
vn -0.130600 0.385400 -0.913500
vn -0.609800 -0.787300 0.091300
vn -0.014300 0.037400 0.999200
vn 0.146000 -0.009800 -0.989200
vn 0.662000 0.739900 0.119500
vn -0.192600 0.981300 -0.001400
vn -0.193000 0.981200 0.007000
vn 0.359300 -0.215300 -0.908000
vn -0.038400 -0.991600 0.123600
vn 0.501100 0.204500 0.840900
vn -0.000300 0.558800 0.829300
vn -0.255100 0.829500 -0.496800
vn -0.233400 0.106700 -0.966500
vn -0.062600 -0.093700 0.993600
vn 0.187600 0.311900 -0.931400
vn -0.019100 -0.987400 -0.157000
vn -0.589200 0.721900 0.362800
vn -0.643100 0.740700 -0.194400
vn 0.296000 -0.230600 0.926900
vn 0.281000 -0.940500 0.191100
vn -0.387000 0.736000 0.555400
vn -0.443300 0.891600 0.092500
vn -0.306800 -0.276700 -0.910700
vn -0.056200 0.050600 0.997100
vn 0.268500 -0.960200 -0.077400
vn 0.341400 -0.928200 0.147800
vn 0.810200 -0.513900 -0.281800
vn -0.124500 -0.357400 0.925600
vn 0.283400 0.919100 -0.273700
vn -0.042700 -0.220800 0.974400
vn -0.174400 -0.013300 0.984600
vn -0.011600 0.999600 0.024000
vn 0.518100 0.840100 0.160700
vn 0.320800 0.930400 -0.177000
vn 0.117400 0.987500 0.105000
vn -0.289700 -0.288400 -0.912600
vn 0.475900 0.851600 -0.219700
vn 0.177200 -0.707200 -0.684500
vn 0.621200 0.741400 0.253800
vn 0.092000 -0.111100 -0.989500
vn -0.444900 -0.882000 -0.155400
vn -0.263600 -0.922500 0.281900
vn -0.082900 -0.969400 -0.231000
vn -0.731700 -0.418200 -0.538300
vn 0.019900 -0.078100 -0.996700
vn -0.947600 -0.271800 0.167700
vn -0.201800 0.964800 0.168800
vn -0.396700 0.816400 -0.419800
vn 0.397800 0.325000 0.858000
vn 0.467800 0.092100 0.879000
vn 0.744800 -0.628000 -0.225600
vn -0.945600 0.277300 0.170000
vn -0.801300 0.517900 0.299500
vn 0.389300 0.134300 0.911300
vn -0.217700 -0.953000 0.210800
vn -0.214300 -0.277000 -0.936700
vn 0.199700 -0.038600 0.979100
vn 0.333900 -0.940100 0.068100
vn -0.230200 -0.027100 0.972800
vn -0.263700 -0.950200 -0.166200
vn -0.101700 0.620700 -0.777400
vn -0.171600 -0.980200 -0.098800
s off
f 2//1 35//1 84//1
f 4//2 88//2 35//2
f 3//3 84//3 35//3
f 63//4 88//4 4//4
f 4//5 6//5 78//5
f 78//6 64//6 42//6
f 5//7 36//7 84//7
f 70//8 36//8 5//8
f 7//9 70//9 85//9
f 9//10 38//10 12//10
f 39//11 78//11 8//11
f 40//12 85//12 70//12
f 10//13 45//13 13//13
f 43//14 45//14 11//14
f 7//15 85//15 43//15
f 12//16 44//16 79//16
f 12//17 38//17 44//17
f 13//18 87//18 65//18
f 49//19 66//19 68//19
f 45//20 43//20 14//20
f 14//21 13//21 45//21
f 44//22 89//22 80//22
f 15//23 14//23 43//23
f 22//24 13//24 14//24
f 13//25 22//25 87//25
f 16//26 17//26 81//26
f 81//27 89//27 16//27
f 19//28 18//28 17//28
f 19//29 21//29 18//29
f 24//30 18//30 20//30
f 23//31 47//31 20//31
f 20//32 18//32 21//32
f 23//33 22//33 47//33
f 19//34 87//34 22//34
f 35//35 26//35 3//35
f 25//36 67//36 88//36
f 48//37 63//37 25//37
f 26//38 82//38 71//38
f 68//39 25//39 72//39
f 51//40 25//40 63//40
f 51//41 69//41 71//41
f 49//42 52//42 54//42
f 27//43 77//43 74//43
f 28//44 73//44 68//44
f 31//45 72//45 30//45
f 75//46 53//46 31//46
f 52//47 55//47 32//47
f 28//48 52//48 73//48
f 28//49 72//49 77//49
f 54//50 53//50 29//50
f 77//51 72//51 31//51
f 33//52 53//52 57//52
f 62//53 74//53 77//53
f 2//54 36//54 8//54
f 2//55 84//55 36//55
f 3//56 71//56 69//56
f 5//57 84//57 3//57
f 64//58 70//58 37//58
f 9//59 36//59 11//59
f 9//60 12//60 8//60
f 9//61 11//61 45//61
f 40//62 64//62 79//62
f 42//63 63//63 78//63
f 65//64 19//64 17//64
f 17//65 86//65 65//65
f 44//66 38//66 41//66
f 41//67 86//67 16//67
f 41//68 16//68 89//68
f 15//69 43//69 80//69
f 46//70 15//70 89//70
f 22//71 14//71 46//71
f 24//72 20//72 81//72
f 17//73 18//73 24//73
f 46//74 20//74 47//74
f 1//75 66//75 50//75
f 51//76 71//76 82//76
f 50//77 76//77 29//77
f 82//78 75//78 51//78
f 30//79 72//79 25//79
f 51//80 75//80 30//80
f 56//81 34//81 32//81
f 57//82 53//82 54//82
f 58//83 57//83 54//83
f 54//84 34//84 58//84
f 33//85 57//85 83//85
f 83//86 77//86 33//86
f 60//87 59//87 56//87
f 27//88 74//88 61//88
f 55//89 61//89 60//89
f 83//90 34//90 59//90
f 59//91 61//91 62//91
f 62//92 83//92 59//92
f 62//93 61//93 74//93
f 35//94 88//94 1//94
f 35//95 1//95 26//95
f 63//96 48//96 88//96
f 7//97 11//97 36//97
f 80//98 85//98 40//98
f 65//99 86//99 10//99
f 66//100 88//100 67//100
f 26//101 50//101 82//101
f 68//102 67//102 25//102
f 27//103 55//103 52//103
f 52//104 77//104 27//104
f 42//105 37//105 69//105
f 4//106 2//106 6//106
f 2//107 4//107 35//107
f 63//108 4//108 78//108
f 37//109 70//109 5//109
f 78//110 6//110 8//110
f 85//111 80//111 43//111
f 78//112 39//112 64//112
f 12//113 39//113 8//113
f 64//114 40//114 70//114
f 11//115 7//115 43//115
f 39//116 12//116 79//116
f 13//117 65//117 10//117
f 50//118 49//118 76//118
f 49//119 50//119 66//119
f 17//120 16//120 86//120
f 21//121 23//121 20//121
f 19//122 23//122 21//122
f 23//123 19//123 22//123
f 66//124 1//124 88//124
f 48//125 25//125 88//125
f 26//126 71//126 3//126
f 28//127 68//127 72//127
f 69//128 51//128 63//128
f 76//129 49//129 54//129
f 52//130 49//130 73//130
f 75//131 29//131 53//131
f 30//132 75//132 31//132
f 54//133 32//133 34//133
f 32//134 54//134 52//134
f 52//135 28//135 77//135
f 29//136 76//136 54//136
f 31//137 33//137 77//137
f 33//138 31//138 53//138
f 83//139 62//139 77//139
f 59//140 34//140 56//140
f 6//141 2//141 8//141
f 5//142 69//142 37//142
f 69//143 5//143 3//143
f 9//144 8//144 36//144
f 38//145 9//145 45//145
f 38//146 10//146 41//146
f 10//147 38//147 45//147
f 64//148 39//148 79//148
f 86//149 41//149 10//149
f 79//150 44//150 80//150
f 19//151 65//151 87//151
f 44//152 41//152 89//152
f 89//153 15//153 80//153
f 15//154 46//154 14//154
f 81//155 46//155 89//155
f 20//156 46//156 81//156
f 17//157 24//157 81//157
f 46//158 47//158 22//158
f 26//159 1//159 50//159
f 73//160 49//160 68//160
f 29//161 82//161 50//161
f 82//162 29//162 75//162
f 51//163 30//163 25//163
f 56//164 55//164 60//164
f 55//165 56//165 32//165
f 57//166 58//166 83//166
f 60//167 61//167 59//167
f 55//168 27//168 61//168
f 83//169 58//169 34//169
f 42//170 64//170 37//170
f 70//171 7//171 36//171
f 40//172 79//172 80//172
f 67//173 68//173 66//173
f 42//174 69//174 63//174
