# Blender v2.73 (sub 0) OBJ File: ''
# www.blender.org
v 1.282435 4.274625 -0.204678
v -0.603410 4.052849 0.440749
v 0.974824 4.131577 0.792530
v 0.685976 4.033004 -0.792703
v -1.123403 4.054035 -0.630982
v -0.467174 3.694496 0.655242
v -0.016928 2.949057 -0.709927
v 1.739911 3.948888 -0.824703
v 1.947983 2.870600 -0.799078
v 2.532799 2.904754 -0.565222
v 1.752571 2.626412 -0.582043
v 1.599237 3.346563 1.016575
v 2.481587 3.859652 0.540490
v 2.490313 3.063485 0.520345
v 3.466059 3.335248 0.758862
v 3.871254 2.211418 0.727152
v 4.510090 3.896427 -0.013022
v 6.245247 2.889738 -0.343863
v 4.353699 3.699435 -0.860972
v 3.558862 3.164458 -0.972997
v 2.282150 3.882042 -0.487658
v 3.621178 2.104269 -0.198736
v 7.714169 2.596119 0.775198
v 6.050839 2.791731 0.795352
v 8.134155 2.141661 1.262657
v 5.476827 1.855986 0.842953
v 4.446831 3.704756 0.759020
v 5.632621 2.107240 -0.589976
v 4.306886 2.028117 -0.851371
v 8.861007 1.369203 1.253204
v 8.504700 1.940155 0.457403
v -6.119221 3.092834 0.615012
v -3.013298 3.709684 -0.235425
v -4.890068 3.148773 -0.437691
v 6.720426 1.133598 1.262905
v 6.495583 1.065153 -0.392790
v 5.281166 1.644267 -0.202642
v 6.294121 1.014133 0.473339
v 7.977464 0.758512 1.367496
v 7.500598 1.399474 -0.472668
v 9.059414 1.193189 0.193036
v 8.288561 0.768005 0.210963
v 9.808609 0.469124 1.563190
v 10.127260 0.123637 0.309165
v 10.113640 -0.179617 1.539197
v 9.407234 -0.032599 0.296046
v 8.591846 -0.240011 0.581876
v 9.396741 -0.101028 1.947247
v 8.241379 -0.064910 1.524183
v -2.075674 3.929781 0.576090
v -2.754991 2.938318 -0.360105
v -2.713784 3.478154 -0.459470
v -0.867587 3.614773 -0.741267
v -2.785070 2.993858 0.666825
v -1.067132 2.954015 0.547618
v -4.120934 1.850835 -0.717401
v -2.648040 2.848254 0.243631
v 0.556255 2.694281 0.823002
v -7.880398 1.506729 0.397366
v -7.368889 1.651484 1.453688
v -8.283383 0.486004 0.313563
v -6.831835 0.853458 0.242639
v -7.692959 -0.033428 0.430167
v -5.158449 2.324013 -0.767946
v -6.595589 2.489372 -0.108511
v -4.395214 1.536049 0.226065
v -3.520243 1.805663 0.266324
v -3.437572 2.003393 1.117829
v -4.887556 1.552908 1.468837
v -9.618085 0.339968 0.662107
v -9.031181 0.832504 1.380690
v -4.407869 2.587480 1.573014
v -6.638633 0.842357 1.050773
v -6.758651 1.012754 1.623722
v -7.435383 -0.718597 1.374005
v 1.483973 2.634802 0.850210
v 8.149231 2.057079 -0.371929
v 7.317959 2.494548 -0.476798
v 7.908659 0.656822 0.813726
v -1.512522 4.185442 -0.211761
v -3.420005 3.622882 0.722939
v -5.413052 3.232697 1.483666
v -9.593289 -0.389552 1.990105
v -9.011063 0.163115 2.281779
v -7.531467 0.693541 2.000939
v -6.875880 -0.090054 1.836353
v -9.821783 -0.772267 1.343450
v -8.313108 -0.986855 1.931619
v -8.633842 -1.146908 0.876725
vn 0.090700 0.989700 -0.110400
vn -0.042700 0.877600 0.477400
vn -0.009700 0.731400 0.681800
vn -0.086300 0.606200 -0.790600
vn -0.061000 0.695900 -0.715500
vn -0.132200 0.208000 0.969100
vn -0.090200 -0.644100 -0.759600
vn 0.249700 0.524000 -0.814200
vn 0.114500 -0.401600 -0.908600
vn -0.033100 -0.972900 -0.228900
vn 0.093100 -0.925400 -0.367300
vn 0.178900 0.043000 0.982900
vn 0.171500 0.735400 0.655500
vn 0.051500 -0.601200 0.797400
vn -0.126700 0.056900 0.990300
vn -0.306900 -0.624000 0.718600
vn 0.275800 0.961200 -0.000900
vn 0.312600 0.762800 -0.566100
vn 0.204500 0.622200 -0.755600
vn -0.109900 0.033000 -0.993400
vn 0.213500 0.807000 -0.550500
vn -0.444900 -0.894100 -0.051100
vn 0.360000 0.906200 0.221800
vn 0.134600 0.653700 0.744600
vn 0.361800 0.567800 0.739400
vn -0.351100 -0.448500 0.821900
vn 0.168400 0.650700 0.740400
vn 0.073900 -0.199300 -0.977100
vn -0.106300 -0.622900 -0.775000
vn 0.409000 0.559300 0.721000
vn 0.703900 0.708600 -0.047900
vn -0.487300 0.873000 -0.022800
vn -0.234500 0.862800 -0.447700
vn -0.180200 0.685100 -0.705800
vn -0.325800 -0.467000 0.822000
vn -0.176100 -0.705100 -0.686900
vn -0.299700 -0.906700 -0.296800
vn -0.428200 -0.893900 0.132000
vn -0.431000 -0.209300 0.877700
vn 0.134700 -0.302800 -0.943400
vn 0.642600 0.327900 -0.692500
vn -0.100400 -0.602500 -0.791700
vn 0.590400 0.575500 0.565800
vn 0.790800 -0.179700 -0.585100
vn 0.774000 -0.506100 0.380400
vn 0.097600 -0.687200 -0.719900
vn -0.349700 -0.832200 -0.430200
vn 0.056800 -0.400800 0.914400
vn -0.611700 -0.595900 0.520400
vn -0.076500 0.663800 0.744000
vn 0.216600 -0.537900 -0.814600
vn -0.119500 0.164500 -0.979100
vn 0.068000 0.147700 -0.986700
vn 0.431200 -0.231700 0.872000
vn -0.118900 -0.105000 0.987300
vn 0.277200 -0.493400 -0.824400
vn 0.423100 -0.902600 0.079300
vn -0.169300 -0.730900 0.661200
vn -0.542600 0.587600 -0.600200
vn -0.324400 0.666100 0.671600
vn -0.158000 -0.064200 -0.985400
vn 0.180700 -0.594000 -0.783900
vn 0.237400 -0.473300 -0.848300
vn -0.147500 0.055700 -0.987500
vn -0.546600 0.522700 -0.654200
vn 0.299600 -0.952500 -0.054000
vn 0.544800 -0.834000 -0.086600
vn 0.593500 -0.530200 0.605500
vn 0.252500 -0.631200 0.733400
vn -0.795200 0.270100 -0.542900
vn -0.598200 0.756400 0.264400
vn 0.225800 0.116800 0.967100
vn 0.694600 -0.718400 0.037600
vn 0.470700 -0.012800 0.882200
vn 0.598500 -0.793800 -0.108100
vn 0.158500 -0.771200 0.616500
vn 0.540000 0.419200 -0.729800
vn 0.273700 0.585200 -0.763300
vn -0.559500 -0.822200 -0.104400
vn -0.099900 0.986300 -0.131400
vn 0.026200 0.818400 0.574100
vn -0.192800 0.705700 0.681700
vn -0.710600 -0.128200 0.691800
vn -0.330500 0.251500 0.909700
vn 0.176800 0.260600 0.949100
vn 0.761700 -0.376000 0.527600
vn -0.840100 -0.539400 -0.057800
vn 0.118800 -0.766200 0.631400
vn -0.052200 -0.863800 -0.501100
s 1
f 1//1 2//2 3//3
f 4//4 5//5 2//2
f 6//6 3//3 2//2
f 7//7 5//5 4//4
f 4//4 8//8 9//9
f 9//9 10//10 11//11
f 12//12 13//13 3//3
f 14//14 13//13 12//12
f 15//15 14//14 16//16
f 17//17 18//18 19//19
f 20//20 9//9 21//21
f 22//22 16//16 14//14
f 23//23 24//24 25//25
f 26//26 24//24 27//27
f 15//15 16//16 26//26
f 19//19 28//28 29//29
f 19//19 18//18 28//28
f 25//25 30//30 31//31
f 32//32 33//33 34//34
f 24//24 26//26 35//35
f 35//35 25//25 24//24
f 28//28 36//36 37//37
f 38//38 35//35 26//26
f 39//39 25//25 35//35
f 25//25 39//39 30//30
f 40//40 41//41 42//42
f 42//42 36//36 40//40
f 43//43 44//44 41//41
f 43//43 45//45 44//44
f 46//46 44//44 47//47
f 48//48 49//49 47//47
f 47//47 44//44 45//45
f 48//48 39//39 49//49
f 43//43 30//30 39//39
f 2//2 50//50 6//6
f 51//51 52//52 5//5
f 53//53 7//7 51//51
f 50//50 54//54 55//55
f 34//34 51//51 56//56
f 57//57 51//51 7//7
f 57//57 58//58 55//55
f 32//32 59//59 60//60
f 61//61 62//62 63//63
f 64//64 65//65 34//34
f 66//66 56//56 67//67
f 68//68 69//69 66//66
f 59//59 70//70 71//71
f 64//64 59//59 65//65
f 64//64 56//56 62//62
f 60//60 69//69 72//72
f 62//62 56//56 66//66
f 73//73 69//69 74//74
f 75//75 63//63 62//62
f 1//1 13//13 21//21
f 1//1 3//3 13//13
f 6//6 55//55 58//58
f 12//12 3//3 6//6
f 10//10 14//14 76//76
f 17//17 13//13 27//27
f 17//17 19//19 21//21
f 17//17 27//27 24//24
f 22//22 10//10 29//29
f 11//11 7//7 9//9
f 31//31 43//43 41//41
f 41//41 77//77 31//31
f 28//28 18//18 78//78
f 78//78 77//77 40//40
f 78//78 40//40 36//36
f 38//38 26//26 37//37
f 79//79 38//38 36//36
f 39//39 35//35 79//79
f 46//46 47//47 42//42
f 41//41 44//44 46//46
f 79//79 47//47 49//49
f 80//80 33//33 81//81
f 57//57 55//55 54//54
f 81//81 82//82 72//72
f 54//54 68//68 57//57
f 67//67 56//56 51//51
f 57//57 68//68 67//67
f 83//83 84//84 71//71
f 74//74 69//69 60//60
f 85//85 74//74 60//60
f 60//60 84//84 85//85
f 73//73 74//74 86//86
f 86//86 62//62 73//73
f 87//87 88//88 83//83
f 61//61 63//63 89//89
f 70//70 89//89 87//87
f 86//86 84//84 88//88
f 88//88 89//89 75//75
f 75//75 86//86 88//88
f 75//75 89//89 63//63
f 2//2 5//5 80//80
f 2//2 80//80 50//50
f 7//7 53//53 5//5
f 15//15 27//27 13//13
f 37//37 16//16 22//22
f 31//31 77//77 23//23
f 33//33 5//5 52//52
f 50//50 81//81 54//54
f 34//34 52//52 51//51
f 61//61 70//70 59//59
f 59//59 62//62 61//61
f 11//11 76//76 58//58
f 4//4 1//1 8//8
f 1//1 4//4 2//2
f 7//7 4//4 9//9
f 76//76 14//14 12//12
f 9//9 8//8 21//21
f 16//16 37//37 26//26
f 9//9 20//20 10//10
f 19//19 20//20 21//21
f 10//10 22//22 14//14
f 27//27 15//15 26//26
f 20//20 19//19 29//29
f 25//25 31//31 23//23
f 81//81 32//32 82//82
f 32//32 81//81 33//33
f 41//41 40//40 77//77
f 45//45 48//48 47//47
f 43//43 48//48 45//45
f 48//48 43//43 39//39
f 33//33 80//80 5//5
f 53//53 51//51 5//5
f 50//50 55//55 6//6
f 64//64 34//34 56//56
f 58//58 57//57 7//7
f 82//82 32//32 60//60
f 59//59 32//32 65//65
f 68//68 72//72 69//69
f 67//67 68//68 66//66
f 60//60 71//71 84//84
f 71//71 60//60 59//59
f 59//59 64//64 62//62
f 72//72 82//82 60//60
f 66//66 73//73 62//62
f 73//73 66//66 69//69
f 86//86 75//75 62//62
f 88//88 84//84 83//83
f 8//8 1//1 21//21
f 12//12 58//58 76//76
f 58//58 12//12 6//6
f 17//17 21//21 13//13
f 18//18 17//17 24//24
f 18//18 23//23 78//78
f 23//23 18//18 24//24
f 10//10 20//20 29//29
f 77//77 78//78 23//23
f 29//29 28//28 37//37
f 43//43 31//31 30//30
f 28//28 78//78 36//36
f 36//36 38//38 37//37
f 38//38 79//79 35//35
f 42//42 79//79 36//36
f 47//47 79//79 42//42
f 41//41 46//46 42//42
f 79//79 49//49 39//39
f 50//50 80//80 81//81
f 65//65 32//32 34//34
f 72//72 54//54 81//81
f 54//54 72//72 68//68
f 57//57 67//67 51//51
f 83//83 70//70 87//87
f 70//70 83//83 71//71
f 74//74 85//85 86//86
f 87//87 89//89 88//88
f 70//70 61//61 89//89
f 86//86 85//85 84//84
f 11//11 10//10 76//76
f 14//14 15//15 13//13
f 22//22 29//29 37//37
f 52//52 34//34 33//33
f 11//11 58//58 7//7
