# Blender v2.73 (sub 0) OBJ File: ''
# www.blender.org
v 0.279647 -0.085274 -0.134631
v 0.193324 -0.485096 -0.010969
v 0.105977 -0.308775 -0.093790
v -0.039910 0.186878 -0.148131
v -0.138574 0.204445 -0.035178
v 0.155473 0.149812 -0.146217
v 0.118739 0.171006 0.138191
v 0.173894 0.206807 -0.054331
v 0.017177 0.224239 0.058680
v 0.235537 0.164371 0.074160
v -0.070748 -0.227112 -0.110940
v -0.164505 0.114029 -0.159452
v -0.042830 -0.076469 -0.157125
v -0.285163 -0.034842 -0.105516
v -0.363612 -0.040669 0.000113
v -0.267051 -0.003500 0.136125
v -0.298378 0.107007 0.091311
v 0.347676 -0.096023 0.082635
v 0.303651 -0.399188 0.060724
v 0.319045 -0.042161 -0.108049
v 0.158905 -0.092836 -0.131876
v 0.025997 0.096448 -0.182307
v 0.005233 -0.527976 0.000869
v -0.133550 -0.512659 -0.017553
v 0.094818 -0.638890 0.087910
v 0.101595 -0.484095 0.198107
v 0.003966 -0.720922 0.110064
v 0.203200 -0.242985 0.186268
v -0.181728 -0.363087 0.189001
v 0.007416 -0.284205 0.195890
v -0.136095 -0.591326 0.144548
v -0.269505 -0.452830 0.051627
v -0.294952 -0.267920 0.133446
v -0.283442 -0.271605 -0.055447
v 0.236673 -0.010055 0.152419
v -0.073955 -0.010191 0.196472
v -0.288223 0.158031 -0.014098
v 0.273750 0.158293 -0.047609
v -0.028594 0.184729 0.157590
vn 0.417600 -0.126000 -0.899800
vn 0.447400 -0.548900 -0.706000
vn 0.055200 -0.308500 -0.949600
vn -0.010200 0.811800 -0.583800
vn -0.228700 0.969500 -0.088200
vn 0.269800 0.527600 -0.805400
vn 0.263800 0.631400 0.729100
vn 0.166200 0.953200 -0.252500
vn 0.017200 0.994600 0.101800
vn 0.570800 0.684000 0.454100
vn -0.098400 -0.259600 -0.960700
vn -0.378300 0.315400 -0.870200
vn -0.098500 -0.221500 -0.970200
vn -0.577400 -0.006800 -0.816400
vn -0.995200 0.062400 -0.075100
vn -0.534500 0.119200 0.836700
vn -0.664100 0.496100 0.559300
vn 0.926100 0.058100 0.372800
vn 0.905900 -0.413600 0.090900
vn 0.777600 0.138000 -0.613400
vn 0.046100 -0.150200 -0.987500
vn 0.067100 0.099000 -0.992800
vn 0.068200 -0.454000 -0.888400
vn -0.276800 -0.517800 -0.809400
vn 0.628500 -0.766600 -0.131400
vn 0.296400 -0.279500 0.913200
vn 0.057800 -0.994500 0.087300
vn 0.369600 -0.023800 0.928900
vn -0.326500 -0.107000 0.939100
vn -0.016600 0.043000 0.998900
vn -0.548800 -0.591000 0.591200
vn -0.854700 -0.510100 -0.096300
vn -0.783000 -0.118800 0.610600
vn -0.633100 -0.282600 -0.720500
vn 0.425000 0.196500 0.883500
vn -0.116300 0.091000 0.989000
vn -0.658600 0.739800 -0.137700
vn 0.751400 0.609400 -0.253000
vn -0.099200 0.656400 0.747800
s 1
f 1//1 2//2 3//3
f 4//4 5//5 6//6
f 7//7 8//8 9//9
f 7//7 10//10 8//8
f 11//11 12//12 13//13
f 11//11 14//14 12//12
f 15//15 16//16 17//17
f 18//18 19//19 20//20
f 2//2 1//1 19//19
f 21//21 13//13 22//22
f 21//21 11//11 13//13
f 23//23 24//24 11//11
f 25//25 19//19 26//26
f 25//25 27//27 23//23
f 19//19 25//25 2//2
f 23//23 27//27 24//24
f 26//26 19//19 28//28
f 27//27 25//25 26//26
f 29//29 26//26 30//30
f 26//26 28//28 30//30
f 31//31 26//26 29//29
f 32//32 31//31 33//33
f 31//31 29//29 33//33
f 24//24 32//32 34//34
f 24//24 34//34 11//11
f 19//19 1//1 20//20
f 28//28 18//18 35//35
f 28//28 19//19 18//18
f 16//16 30//30 36//36
f 16//16 29//29 30//30
f 16//16 36//36 17//17
f 32//32 33//33 15//15
f 14//14 34//34 15//15
f 34//34 32//32 15//15
f 14//14 15//15 37//37
f 21//21 22//22 6//6
f 1//1 21//21 6//6
f 20//20 1//1 38//38
f 1//1 6//6 38//38
f 18//18 38//38 10//10
f 18//18 20//20 38//38
f 35//35 10//10 7//7
f 35//35 18//18 10//10
f 36//36 7//7 39//39
f 36//36 35//35 7//7
f 36//36 39//39 17//17
f 15//15 17//17 37//37
f 14//14 37//37 12//12
f 13//13 12//12 22//22
f 6//6 22//22 4//4
f 8//8 10//10 38//38
f 9//9 8//8 6//6
f 9//9 39//39 7//7
f 5//5 17//17 39//39
f 5//5 37//37 17//17
f 5//5 9//9 6//6
f 5//5 39//39 9//9
f 5//5 4//4 37//37
f 4//4 12//12 37//37
f 22//22 12//12 4//4
f 38//38 6//6 8//8
f 11//11 34//34 14//14
f 15//15 33//33 16//16
f 30//30 35//35 36//36
f 1//1 3//3 21//21
f 33//33 29//29 16//16
f 30//30 28//28 35//35
f 3//3 11//11 21//21
f 3//3 23//23 11//11
f 27//27 32//32 24//24
f 27//27 31//31 32//32
f 27//27 26//26 31//31
f 3//3 2//2 23//23
f 2//2 25//25 23//23
