# Blender v2.73 (sub 0) OBJ File: ''
# www.blender.org
v 0.058558 -0.031062 0.133965
v -0.066261 -0.044580 0.067122
v 0.008571 -0.042793 -0.106632
v -0.055161 -0.017443 -0.240345
v -0.067048 -0.025318 -0.100869
v -0.105353 0.014592 -0.217959
v 0.049151 -0.021799 -0.236994
v 0.052266 0.035020 -0.316263
v 0.129417 0.038324 -0.131203
v 0.062025 0.162097 -0.134574
v 0.128045 0.119499 0.025603
v 0.066233 0.065976 0.172350
v 0.127708 0.053708 0.112066
v 0.042378 0.321620 0.090392
v -0.136782 0.041563 -0.024715
v -0.119986 0.162511 0.060989
v -0.061568 0.182360 -0.061892
v -0.035323 0.125547 0.175122
v -0.107026 0.077732 -0.164928
v -0.124910 -0.015073 0.040025
v 0.134676 -0.023280 -0.006639
v -0.043713 0.028854 -0.323076
v -0.025966 -0.006843 0.185808
v 0.009400 0.099575 -0.287727
v -0.110730 0.043856 0.141473
v 0.048734 0.204881 -0.039079
v -0.046869 0.295599 0.073306
vn 0.388000 -0.782800 0.486400
vn -0.293000 -0.942600 0.160300
vn -0.004900 -0.997500 -0.070200
vn -0.339100 -0.882300 -0.326500
vn -0.353300 -0.931800 -0.083000
vn -0.889100 -0.301300 -0.344500
vn 0.396400 -0.845900 -0.356800
vn 0.551200 -0.115000 -0.826400
vn 0.956700 -0.028800 -0.289500
vn 0.481100 0.794300 -0.370900
vn 0.950700 0.309100 -0.023100
vn 0.469800 0.018000 0.882600
vn 0.887500 -0.074300 0.454700
vn 0.328700 0.916800 0.226800
vn -0.997400 0.023800 -0.067700
vn -0.924500 0.351700 0.147100
vn -0.549500 0.717300 -0.428400
vn -0.272800 0.290700 0.917100
vn -0.841400 0.447600 -0.302700
vn -0.805500 -0.582000 0.111500
vn 0.772300 -0.634700 0.025100
vn -0.441300 -0.133600 -0.887300
vn -0.164800 -0.513000 0.842400
vn 0.012500 0.764900 -0.644000
vn -0.801100 -0.126700 0.584900
vn 0.431400 0.768900 -0.471900
vn -0.548600 0.829400 0.105400
s 1
f 1//1 2//2 3//3
f 4//4 5//5 6//6
f 7//7 8//8 9//9
f 9//9 10//10 11//11
f 12//12 13//13 14//14
f 15//15 16//16 17//17
f 18//18 12//12 14//14
f 6//6 15//15 19//19
f 15//15 20//20 16//16
f 21//21 9//9 11//11
f 8//8 7//7 22//22
f 1//1 3//3 21//21
f 4//4 3//3 5//5
f 2//2 1//1 23//23
f 2//2 23//23 20//20
f 5//5 3//3 20//20
f 3//3 2//2 20//20
f 4//4 6//6 22//22
f 22//22 7//7 4//4
f 8//8 22//22 24//24
f 21//21 7//7 9//9
f 1//1 21//21 13//13
f 12//12 1//1 13//13
f 25//25 23//23 18//18
f 15//15 6//6 20//20
f 8//8 24//24 10//10
f 9//9 8//8 10//10
f 13//13 21//21 11//11
f 23//23 12//12 18//18
f 25//25 18//18 16//16
f 16//16 20//20 25//25
f 22//22 19//19 17//17
f 22//22 6//6 19//19
f 22//22 17//17 24//24
f 26//26 10//10 17//17
f 26//26 14//14 11//11
f 14//14 26//26 17//17
f 27//27 18//18 14//14
f 27//27 14//14 17//17
f 16//16 18//18 27//27
f 17//17 16//16 27//27
f 19//19 15//15 17//17
f 24//24 17//17 10//10
f 13//13 11//11 14//14
f 11//11 10//10 26//26
f 5//5 20//20 6//6
f 20//20 23//23 25//25
f 23//23 1//1 12//12
f 7//7 3//3 4//4
f 7//7 21//21 3//3
