# Blender v2.73 (sub 0) OBJ File: ''
# www.blender.org
v 0.058558 -0.031062 0.133965
v -0.066261 -0.044580 0.067122
v 0.008571 -0.042793 -0.106632
v -0.055161 -0.017443 -0.240345
v -0.067048 -0.025318 -0.100869
v -0.105353 0.014592 -0.217959
v 0.049151 -0.021799 -0.236994
v 0.052266 0.035020 -0.316263
v 0.129417 0.038324 -0.131203
v 0.062025 0.162097 -0.134574
v 0.128045 0.119499 0.025603
v 0.066233 0.065976 0.172350
v 0.127708 0.053708 0.112066
v 0.042378 0.321620 0.090392
v -0.136782 0.041563 -0.024715
v -0.119986 0.162511 0.060989
v -0.061568 0.182360 -0.061892
v -0.035323 0.125547 0.175122
v -0.107026 0.077732 -0.164928
v -0.124910 -0.015073 0.040025
v 0.134676 -0.023280 -0.006639
v -0.043713 0.028854 -0.323076
v -0.025966 -0.006843 0.185808
v 0.009400 0.099575 -0.287727
v -0.110730 0.043856 0.141473
v 0.048734 0.204881 -0.039079
v -0.046869 0.295599 0.073306
vn 0.092100 -0.995300 0.029400
vn -0.565200 -0.819500 -0.094400
vn 0.803100 -0.498700 -0.325900
vn 0.857200 0.460400 -0.230800
vn 0.700400 0.276300 0.658000
vn -0.861500 0.367800 -0.350100
vn 0.210700 0.316200 0.925000
vn -0.976800 0.121800 -0.175900
vn -0.982700 0.005400 0.185000
vn 0.998600 0.050300 -0.017300
vn 0.093100 -0.811000 -0.577600
vn 0.137600 -0.990300 0.019700
vn -0.229900 -0.970400 -0.074400
vn -0.071400 -0.943300 0.324200
vn -0.554900 -0.719700 0.417200
vn -0.226700 -0.973700 -0.022300
vn -0.378100 -0.909600 -0.172200
vn -0.614400 -0.649300 -0.448300
vn -0.020600 -0.871200 -0.490400
vn 0.037000 0.424400 -0.904700
vn 0.791700 -0.533700 -0.297400
vn 0.761700 -0.522300 0.383500
vn 0.626900 -0.329000 0.706200
vn -0.443800 0.040900 0.895200
vn -0.940900 -0.321000 -0.108200
vn 0.625800 0.623000 -0.469300
vn 0.826000 0.440100 -0.352200
vn 0.998700 0.038800 0.033400
vn 0.077400 0.085600 0.993300
vn -0.683600 0.372400 0.627700
vn -0.991200 0.011900 0.131600
vn -0.576400 0.686700 -0.443000
vn -0.828900 0.346800 -0.439000
vn -0.602200 0.669600 -0.434700
vn -0.097900 0.903100 -0.418200
vn 0.803500 0.461200 -0.376400
vn -0.013000 0.742300 -0.669900
vn -0.297200 0.475600 0.828000
vn -0.102900 0.768000 -0.632100
vn -0.704400 0.328800 0.629000
vn -0.820100 0.479500 -0.312400
vn -0.887500 0.455400 -0.070900
vn -0.059000 0.931100 -0.359900
vn 0.918900 0.312200 0.241100
vn 0.781100 0.603200 -0.161500
vn -0.484400 -0.864200 -0.136100
vn -0.620300 -0.637500 0.457000
vn 0.409200 -0.363400 0.836900
vn -0.035700 -0.984800 -0.169700
vn 0.220100 -0.971500 -0.088000
s off
f 1//1 2//1 3//1
f 4//2 5//2 6//2
f 7//3 8//3 9//3
f 9//4 10//4 11//4
f 12//5 13//5 14//5
f 15//6 16//6 17//6
f 18//7 12//7 14//7
f 6//8 15//8 19//8
f 15//9 20//9 16//9
f 21//10 9//10 11//10
f 8//11 7//11 22//11
f 1//12 3//12 21//12
f 4//13 3//13 5//13
f 2//14 1//14 23//14
f 2//15 23//15 20//15
f 5//16 3//16 20//16
f 3//17 2//17 20//17
f 4//18 6//18 22//18
f 22//19 7//19 4//19
f 8//20 22//20 24//20
f 21//21 7//21 9//21
f 1//22 21//22 13//22
f 12//23 1//23 13//23
f 25//24 23//24 18//24
f 15//25 6//25 20//25
f 8//26 24//26 10//26
f 9//27 8//27 10//27
f 13//28 21//28 11//28
f 23//29 12//29 18//29
f 25//30 18//30 16//30
f 16//31 20//31 25//31
f 22//32 19//32 17//32
f 22//33 6//33 19//33
f 22//34 17//34 24//34
f 26//35 10//35 17//35
f 26//36 14//36 11//36
f 14//37 26//37 17//37
f 27//38 18//38 14//38
f 27//39 14//39 17//39
f 16//40 18//40 27//40
f 17//41 16//41 27//41
f 19//42 15//42 17//42
f 24//43 17//43 10//43
f 13//44 11//44 14//44
f 11//45 10//45 26//45
f 5//46 20//46 6//46
f 20//47 23//47 25//47
f 23//48 1//48 12//48
f 7//49 3//49 4//49
f 7//50 21//50 3//50
