# Blender v2.73 (sub 0) OBJ File: ''
# www.blender.org
v 0.237061 -0.493351 -0.731248
v -0.738359 -0.668077 -2.651140
v 0.203843 -0.883702 -2.078537
v 0.391377 -0.917098 -2.524288
v -1.001107 0.110930 -2.511512
v 0.070991 -0.284137 -3.352357
v -0.532708 -0.481096 -3.101290
v 0.766888 -0.146834 -3.067631
v 0.704350 0.313673 -3.047699
v 0.888361 0.469254 -2.585228
v 0.076794 0.872243 -2.920057
v -0.167070 0.992519 -2.628010
v 0.330246 0.699714 -3.057133
v 0.740438 0.609963 -2.813676
v 0.293921 0.974041 -2.499597
v -0.080577 0.932231 -2.148846
v -0.291228 0.627505 -1.390345
v 0.126136 0.735450 -1.501568
v 0.558911 0.833280 -2.651540
v 0.785358 0.625805 -2.470216
v -0.006269 0.610249 -3.225164
v -0.619965 0.668475 -2.843608
v -0.895448 0.333954 -2.120125
v 0.161475 0.220239 -0.280127
v 0.994270 0.124487 -2.531779
v -0.395844 -0.156902 -0.490617
v -0.136090 -0.391036 -0.392921
v 0.955697 -0.326867 -2.473268
v 0.548906 -0.318341 -3.174641
v -0.109164 -0.483644 -3.327338
v 0.588826 -0.750573 -2.382700
v 0.352441 -0.805848 -2.990957
v -0.644351 -0.587499 -2.175372
v 0.865704 0.306974 -2.081671
v -0.103933 0.347695 -0.542548
v 0.600999 0.498786 -3.091949
v 0.031714 -0.767132 -3.057323
v -0.434155 -0.819496 -2.313426
v 0.738036 -0.653851 -2.685390
v -0.793156 -0.395811 -2.894957
v 0.947034 -0.064905 -2.405170
v 0.835161 0.026027 -2.206707
v 0.288093 -0.338715 -0.655282
v 0.108689 -0.155139 -0.136797
v -0.116056 0.232385 -0.183173
v 0.393434 0.452735 -1.078020
v -0.440146 0.610882 -3.124858
v -0.455966 0.885906 -2.562829
v 0.177738 0.961415 -2.640371
v -0.346865 0.808047 -2.100822
v -0.719674 0.570712 -2.123322
v 0.148712 0.867270 -2.114912
v 0.527074 0.745255 -2.107196
v -0.088005 0.610966 -0.872711
v 0.693752 0.531920 -1.879715
v -0.806582 0.596212 -2.547670
v -0.790173 0.199346 -1.605332
v -0.874874 0.250775 -2.251917
v -0.801484 -0.054621 -1.901885
v -0.627601 0.442111 -1.697355
v -0.592736 -0.036642 -1.188234
v -0.433461 0.336690 -0.880647
v 0.479570 0.175752 -0.523395
v 0.409642 -0.123498 -0.550793
v 0.582171 0.115620 -1.316385
v 0.935379 0.179210 -2.711752
v 0.915820 -0.268958 -2.742419
v 0.252616 0.421872 -3.266029
v 0.356229 -0.040959 -3.374690
v 0.131487 0.172654 -3.420199
v -0.188100 0.263677 -3.327648
v -0.930012 0.427357 -2.629255
v -0.926784 0.067356 -2.815390
v -0.726796 0.301465 -3.075887
v -0.325073 0.126209 -0.357829
v -0.007478 -0.009067 -0.013423
v -0.536655 -0.228351 -0.982429
v -0.182192 -0.457417 -0.833258
v 0.576433 -0.405671 -1.381869
v 0.726902 -0.525875 -1.996874
v 0.828245 0.082891 -1.831883
v 0.679083 -0.071308 -1.343634
v 0.842979 0.008428 -2.942124
v 0.715872 -0.554569 -2.858497
v -0.328111 0.088575 -3.376669
v -0.705511 -0.043211 -3.162086
v -0.961035 -0.170644 -2.475262
v -1.029299 -0.022633 -2.591390
v -0.840482 -0.226423 -1.973392
v -0.891218 -0.342269 -2.724987
v -0.841191 -0.496087 -2.415403
v -0.608225 -0.533380 -1.765371
v 0.181711 -0.588772 -1.265476
v -0.414478 -0.578980 -1.547889
v -0.182358 -0.931211 -2.232658
v -0.161598 -0.812917 -1.601823
v 0.398525 -0.614615 -1.579556
v 0.240207 -0.491809 -3.258493
v 0.334049 -0.872137 -2.760430
v 0.069523 -0.991370 -2.644613
v -0.096423 -1.013069 -2.639784
v -0.728634 -0.729504 -2.410845
v -0.432180 -0.905350 -2.616976
v -0.418064 -0.620781 -3.067241
vn 0.132700 -0.962000 0.238700
vn -0.606500 0.748100 0.269300
vn -0.374600 0.895800 0.239400
vn -0.537000 0.828300 0.159800
vn 0.093200 0.989800 0.107700
vn 0.242600 0.952500 0.184100
vn -0.395600 0.823500 -0.406600
vn -0.627800 0.748700 -0.213100
vn -0.803600 0.357600 0.475700
vn -0.896500 0.376700 0.233000
vn -0.919300 0.180200 0.349900
vn -0.987700 -0.098000 0.121600
vn -0.919100 -0.281300 0.275900
vn 0.612500 0.205300 0.763300
vn 0.794400 -0.236800 0.559400
vn 0.889600 0.449400 0.081000
vn 0.893200 0.442100 0.082000
vn 0.375600 0.290700 -0.880000
vn -0.649400 -0.350000 -0.675100
vn -0.466800 0.300800 -0.831600
vn -0.695700 0.325000 -0.640600
vn -0.752500 -0.116000 0.648300
vn -0.095000 -0.685300 0.722000
vn -0.846500 -0.465300 0.258600
vn -0.563100 -0.751300 0.344200
vn 0.865600 0.305200 0.397000
vn 0.735300 -0.583000 0.345500
vn 0.869100 0.296200 0.396100
vn 0.932000 -0.015900 -0.362000
vn 0.894100 -0.082200 -0.440300
vn 0.827400 -0.434800 -0.355300
vn 0.793100 -0.353600 -0.496000
vn -0.068400 -0.137700 -0.988100
vn -0.896900 0.350600 -0.269600
vn -0.897000 -0.071500 0.436200
vn -0.914400 -0.404300 0.022200
vn -0.921300 -0.364300 -0.136100
vn -0.932200 -0.308400 0.189600
vn -0.428000 -0.899200 0.090500
vn -0.684700 -0.712200 0.154300
vn 0.262200 -0.904900 0.335400
vn 0.118900 -0.979500 0.162600
vn 0.620100 -0.782500 0.055600
vn 0.496100 -0.822900 -0.277100
vn 0.551900 -0.417700 -0.721800
vn -0.590400 -0.787400 -0.177400
vn -0.279000 -0.924500 0.259700
vn -0.823700 -0.461200 -0.329900
vn -0.601700 -0.596600 -0.531000
vn 0.099800 -0.870400 -0.482100
vn -0.248100 -0.799500 -0.547000
vn -0.602600 -0.617700 -0.505300
vn -0.293100 -0.804000 -0.517300
vn 0.132600 -0.648300 -0.749800
vn -0.222600 -0.728100 -0.648300
vn -0.506500 -0.721600 -0.471900
vn -0.358100 -0.899000 0.252000
vn -0.897700 -0.434300 -0.074700
vn -0.407000 -0.710400 0.574100
vn -0.782800 -0.367700 0.501900
vn -0.718400 -0.593300 0.363100
vn 0.084100 -0.628600 -0.773200
vn -0.057700 -0.958200 -0.280100
vn 0.175600 -0.858200 -0.482400
vn 0.484200 -0.730800 -0.481100
vn 0.602400 -0.778600 -0.175800
vn 0.305200 -0.919100 -0.249100
vn 0.762500 -0.622400 0.177000
vn 0.762700 -0.639100 0.099300
vn 0.499200 -0.822800 0.271700
vn 0.592700 -0.759200 0.269000
vn 0.518000 -0.806700 0.284400
vn 0.079000 -0.991100 0.107500
vn 0.368300 -0.870700 0.325900
vn 0.491000 -0.832300 0.257200
vn 0.886400 -0.403800 0.226400
vn 0.570000 -0.766200 0.296800
vn 0.047900 -0.982000 0.182600
vn 0.137100 -0.965100 0.223000
vn 0.173600 -0.892000 0.417300
vn -0.605400 -0.728400 0.320700
vn -0.628900 -0.737000 0.247700
vn -0.446400 -0.876700 0.179100
vn -0.498500 -0.823300 0.271500
vn -0.833600 -0.533300 0.143800
vn -0.907700 -0.418200 0.033700
vn -0.868300 -0.170500 -0.465900
vn -0.875000 -0.192300 -0.444200
vn 0.238900 -0.040400 -0.970200
vn -0.494200 -0.374800 -0.784500
vn -0.417000 -0.235300 -0.877900
vn -0.030300 -0.097400 -0.994800
vn -0.155900 0.379900 -0.911800
vn -0.179500 0.395700 -0.900700
vn 0.492900 -0.551900 -0.672700
vn 0.641700 -0.412100 -0.646800
vn 0.767300 0.131400 -0.627700
vn 0.842800 0.211600 -0.494900
vn 0.907400 -0.310900 0.282800
vn 0.843800 -0.108700 0.525500
vn 0.937300 0.346800 -0.035300
vn 0.950400 -0.218200 0.221400
vn 0.910200 -0.242500 0.335800
vn 0.991500 -0.124300 0.037200
vn 0.905900 -0.311000 0.287400
vn 0.843200 0.382000 0.378200
vn 0.771400 -0.466900 0.432300
vn 0.246000 -0.818700 0.518900
vn -0.100300 -0.977600 0.185000
vn -0.157600 -0.973900 0.163300
vn -0.657500 -0.695700 0.289300
vn -0.567400 -0.761300 0.313900
vn -0.630500 -0.429800 0.646300
vn -0.694900 -0.696800 0.177800
vn -0.684200 0.187700 0.704700
vn -0.945800 0.181700 0.269200
vn -0.953300 0.042100 0.299000
vn -0.959000 0.119100 0.257300
vn -0.449400 0.792500 0.412200
vn -0.586400 0.776900 0.229500
vn -0.960000 0.121800 -0.252300
vn -0.854400 -0.161700 -0.493800
vn -0.860900 0.426400 -0.277700
vn -0.826700 0.087900 -0.555700
vn -0.532000 0.174400 -0.828600
vn -0.661700 0.528900 -0.531400
vn -0.208200 0.376200 -0.902800
vn -0.164200 0.358000 -0.919200
vn 0.053700 -0.153700 -0.986700
vn 0.289900 -0.419100 -0.860400
vn 0.188600 0.448700 -0.873500
vn 0.453900 0.298700 -0.839500
vn 0.285400 0.523700 -0.802600
vn 0.595800 0.143700 -0.790200
vn 0.553500 -0.198800 -0.808800
vn 0.613900 0.117200 -0.780600
vn 0.840500 0.269100 -0.470300
vn 0.948400 -0.019700 -0.316400
vn 0.975500 -0.216200 0.040500
vn 0.989000 0.067000 -0.132100
vn 0.874000 0.306300 -0.377300
vn 0.939600 0.252900 -0.230600
vn 0.884300 0.086300 0.458900
vn 0.877600 0.443400 0.182400
vn 0.939800 0.310800 0.142400
vn 0.896300 -0.257900 0.360600
vn 0.898900 0.247900 0.361200
vn 0.923200 -0.243000 0.297700
vn 0.671500 -0.594200 0.442700
vn 0.394200 0.845200 0.360900
vn 0.427500 0.826900 0.365200
vn -0.999300 0.030400 -0.023900
vn 0.204200 0.854600 0.477500
vn 0.789300 0.119000 0.602300
vn 0.279800 0.633200 0.721700
vn -0.629800 0.737200 0.244900
vn -0.947600 0.197700 0.250800
vn -0.546700 0.591000 0.593200
vn -0.955500 0.101600 0.276900
vn -0.955500 0.035100 0.293000
vn -0.754700 0.564800 0.333700
vn -0.923300 -0.373000 0.091300
vn -0.732200 0.607300 0.308500
vn -0.910300 0.358000 0.207900
vn -0.721200 0.529400 -0.446700
vn -0.953300 -0.098900 0.285300
vn -0.962700 0.116900 0.244200
vn -0.703300 0.651500 -0.284400
vn -0.389200 0.821400 -0.417000
vn -0.213000 0.827900 -0.518800
vn 0.260500 0.532700 -0.805300
vn 0.465100 0.716800 -0.519500
vn -0.142700 0.769800 -0.622200
vn 0.138100 0.732500 -0.666600
vn 0.457700 0.735100 -0.500100
vn 0.379400 0.839700 -0.388500
vn 0.358900 0.844000 -0.398600
vn 0.073300 0.942200 -0.326900
vn 0.791300 0.316700 -0.523000
vn 0.746100 0.661500 -0.075700
vn 0.744300 0.637000 -0.200600
vn 0.554400 0.801400 0.224500
vn 0.227600 0.879500 -0.417900
vn 0.567300 0.812100 0.136400
vn 0.515600 0.780300 0.354000
vn 0.475200 0.840300 0.261000
vn 0.413600 0.855900 0.310300
vn -0.219300 0.968600 0.117100
vn 0.280600 0.892300 0.353600
vn 0.296100 0.931500 0.211100
vn 0.237100 0.948000 0.212500
vn -0.288600 0.945100 0.153400
vn -0.370300 0.893000 0.255900
vn -0.152400 0.931000 0.331700
vn -0.603900 0.753100 0.261200
vn -0.542900 0.669200 0.507400
vn -0.530900 0.810500 0.247500
vn -0.673900 0.654300 0.343200
vn -0.306400 0.936000 0.173100
vn 0.643800 0.733900 0.216600
vn 0.858200 0.469500 0.207800
vn 0.335500 -0.147200 -0.930500
vn 0.872000 -0.435800 -0.223000
vn 0.179300 -0.280200 -0.943100
s off
f 100//1 4//1 101//1
f 56//2 50//2 48//2
f 48//3 50//3 16//3
f 56//4 51//4 50//4
f 16//5 49//5 12//5
f 16//6 52//6 49//6
f 22//7 48//7 12//7
f 22//8 56//8 48//8
f 5//9 56//9 72//9
f 5//10 58//10 56//10
f 5//11 59//11 58//11
f 59//12 57//12 58//12
f 59//13 61//13 57//13
f 44//14 63//14 24//14
f 44//15 64//15 63//15
f 82//16 65//16 63//16
f 63//17 65//17 46//17
f 69//18 68//18 36//18
f 7//19 40//19 86//19
f 85//20 74//20 47//20
f 73//21 72//21 22//21
f 26//22 76//22 75//22
f 27//23 44//23 76//23
f 89//24 92//24 77//24
f 92//25 94//25 77//25
f 65//26 34//26 55//26
f 43//27 79//27 64//27
f 65//28 81//28 34//28
f 66//29 67//29 83//29
f 67//30 8//30 83//30
f 39//31 84//31 67//31
f 67//32 84//32 8//32
f 6//33 85//33 70//33
f 73//34 88//34 5//34
f 88//35 87//35 5//35
f 90//36 87//36 88//36
f 2//37 91//37 87//37
f 87//38 91//38 89//38
f 101//39 95//39 38//39
f 33//40 38//40 92//40
f 3//41 93//41 96//41
f 93//42 97//42 1//42
f 4//43 39//43 31//43
f 4//44 99//44 39//44
f 32//45 98//45 84//45
f 2//46 103//46 102//46
f 103//47 101//47 38//47
f 90//48 40//48 2//48
f 40//49 104//49 2//49
f 100//50 101//50 37//50
f 101//51 104//51 37//51
f 104//52 40//52 7//52
f 101//53 103//53 104//53
f 98//54 37//54 30//54
f 37//55 104//55 30//55
f 2//56 104//56 103//56
f 102//57 103//57 38//57
f 91//58 2//58 102//58
f 102//59 38//59 33//59
f 33//60 91//60 102//60
f 91//61 33//61 89//61
f 37//62 98//62 32//62
f 99//63 37//63 32//63
f 100//64 37//64 99//64
f 99//65 84//65 39//65
f 99//66 32//66 84//66
f 4//67 100//67 99//67
f 31//68 39//68 28//68
f 31//69 28//69 80//69
f 3//70 4//70 31//70
f 97//71 31//71 79//71
f 31//72 80//72 79//72
f 95//73 4//73 3//73
f 93//74 3//74 97//74
f 3//75 31//75 97//75
f 1//76 97//76 43//76
f 97//77 79//77 43//77
f 95//78 3//78 96//78
f 101//79 4//79 95//79
f 96//80 93//80 78//80
f 94//81 96//81 78//81
f 38//82 96//82 94//82
f 38//83 95//83 96//83
f 92//84 38//84 94//84
f 33//85 92//85 89//85
f 90//86 2//86 87//86
f 40//87 88//87 73//87
f 40//88 90//88 88//88
f 104//89 7//89 86//89
f 30//90 104//90 86//90
f 85//91 30//91 86//91
f 6//92 30//92 85//92
f 70//93 85//93 71//93
f 71//94 85//94 47//94
f 84//95 98//95 29//95
f 8//96 84//96 29//96
f 83//97 8//97 9//97
f 66//98 83//98 9//98
f 79//99 80//99 82//99
f 42//100 28//100 41//100
f 81//101 28//101 42//101
f 82//102 80//102 81//102
f 80//103 28//103 81//103
f 81//104 42//104 34//104
f 64//105 79//105 82//105
f 65//106 82//106 81//106
f 1//107 43//107 44//107
f 44//108 27//108 1//108
f 27//109 93//109 1//109
f 78//110 93//110 27//110
f 77//111 94//111 26//111
f 94//112 78//112 26//112
f 26//113 27//113 76//113
f 78//114 27//114 26//114
f 75//115 76//115 45//115
f 61//116 75//116 62//116
f 61//117 77//117 75//117
f 77//118 26//118 75//118
f 62//119 75//119 35//119
f 75//120 45//120 35//120
f 5//121 72//121 73//121
f 40//122 73//122 86//122
f 74//123 73//123 22//123
f 86//124 73//124 74//124
f 85//125 86//125 74//125
f 74//126 22//126 47//126
f 71//127 47//127 21//127
f 70//128 71//128 21//128
f 69//129 6//129 70//129
f 29//130 6//130 69//130
f 68//131 70//131 21//131
f 69//132 70//132 68//132
f 36//133 68//133 13//133
f 9//134 69//134 36//134
f 29//135 69//135 8//135
f 8//136 69//136 9//136
f 66//137 9//137 14//137
f 67//138 66//138 25//138
f 41//139 67//139 25//139
f 41//140 28//140 67//140
f 66//141 14//141 10//141
f 25//142 66//142 10//142
f 42//143 41//143 25//143
f 34//144 10//144 20//144
f 34//145 25//145 10//145
f 42//146 25//146 34//146
f 46//147 65//147 55//147
f 64//148 82//148 63//148
f 44//149 43//149 64//149
f 24//150 63//150 46//150
f 24//151 46//151 54//151
f 35//152 45//152 54//152
f 45//153 24//153 54//153
f 44//154 24//154 76//154
f 76//155 24//155 45//155
f 60//156 62//156 17//156
f 61//157 62//157 60//157
f 57//158 61//158 60//158
f 89//159 61//159 59//159
f 89//160 77//160 61//160
f 23//161 60//161 51//161
f 58//162 57//162 23//162
f 57//163 60//163 23//163
f 58//164 51//164 56//164
f 58//165 23//165 51//165
f 87//166 59//166 5//166
f 87//167 89//167 59//167
f 22//168 72//168 56//168
f 12//169 47//169 22//169
f 47//170 12//170 11//170
f 13//171 68//171 21//171
f 14//172 36//172 13//172
f 11//173 21//173 47//173
f 13//174 21//174 11//174
f 19//175 14//175 13//175
f 15//176 13//176 49//176
f 13//177 11//177 49//177
f 49//178 11//178 12//178
f 14//179 9//179 36//179
f 19//180 10//180 14//180
f 20//181 10//181 19//181
f 15//182 20//182 19//182
f 19//183 13//183 15//183
f 53//184 20//184 15//184
f 18//185 55//185 53//185
f 18//186 46//186 55//186
f 54//187 46//187 18//187
f 17//188 54//188 18//188
f 52//189 53//189 15//189
f 18//190 53//190 52//190
f 16//191 18//191 52//191
f 49//192 52//192 15//192
f 50//193 17//193 16//193
f 17//194 18//194 16//194
f 17//195 62//195 54//195
f 62//196 35//196 54//196
f 51//197 17//197 50//197
f 51//198 60//198 17//198
f 12//199 48//199 16//199
f 55//200 20//200 53//200
f 55//201 34//201 20//201
f 98//202 6//202 29//202
f 28//203 39//203 67//203
f 98//204 30//204 6//204
