# Blender v2.73 (sub 0) OBJ File: ''
# www.blender.org
v -0.070042 -0.142665 0.033473
v 0.050413 -0.148655 -0.017969
v 0.014574 -0.132082 0.102888
v -0.014122 -0.070376 0.226957
v 0.122999 -0.092725 0.055804
v 0.048802 0.005722 0.243685
v -0.041690 0.004845 0.239522
v -0.133510 -0.075694 0.023721
v -0.110286 0.005373 0.150002
v -0.153428 0.002754 -0.010731
v 0.002191 -0.001586 -0.366347
v -0.062936 0.052562 -0.272465
v -0.000913 0.127364 -0.094820
v -0.033823 0.150384 0.014592
v -0.005338 0.094383 0.204668
v 0.031014 0.151250 0.025134
v -0.129051 -0.000982 -0.228606
v 0.148218 0.003461 0.061131
v 0.124435 -0.001319 -0.215626
v 0.060794 -0.048164 -0.285866
v -0.067594 -0.064944 -0.253634
v 0.121221 0.091299 0.039714
v -0.107849 0.114485 0.017883
v 0.079012 0.081781 -0.217703
vn -0.444900 -0.889900 0.100400
vn 0.316700 -0.941100 -0.118100
vn 0.160200 -0.914600 0.371200
vn -0.120800 -0.647500 0.752400
vn 0.786600 -0.585400 0.196400
vn 0.519400 0.038700 0.853700
vn -0.502200 0.077800 0.861200
vn -0.866000 -0.484700 0.123100
vn -0.873300 0.044300 0.485100
vn -0.996900 0.069600 0.035600
vn 0.029400 -0.006000 -0.999500
vn -0.402100 0.749700 -0.525500
vn -0.094600 0.955300 -0.279900
vn -0.252300 0.967700 0.003200
vn -0.049800 0.757200 0.651200
vn 0.267800 0.960100 0.079700
vn -0.917700 0.007400 -0.397200
vn 0.975200 0.037900 0.217800
vn 0.932200 -0.068300 -0.355400
vn 0.423100 -0.716500 -0.554600
vn -0.387800 -0.791000 -0.473100
vn 0.782400 0.605500 0.145300
vn -0.708500 0.701600 0.075800
vn 0.462800 0.777600 -0.425400
s 1
f 1//1 2//2 3//3
f 4//4 5//5 6//6
f 4//4 6//6 7//7
f 8//8 9//9 10//10
f 11//11 12//12 13//13
f 14//14 15//15 16//16
f 11//11 17//17 12//12
f 18//18 5//5 19//19
f 5//5 20//20 19//19
f 4//4 1//1 3//3
f 11//11 2//2 21//21
f 2//2 20//20 5//5
f 2//2 1//1 21//21
f 3//3 2//2 5//5
f 4//4 3//3 5//5
f 1//1 8//8 21//21
f 18//18 19//19 22//22
f 6//6 5//5 18//18
f 6//6 18//18 22//22
f 9//9 4//4 7//7
f 9//9 8//8 4//4
f 8//8 1//1 4//4
f 17//17 8//8 10//10
f 17//17 10//10 23//23
f 19//19 11//11 24//24
f 19//19 24//24 22//22
f 7//7 6//6 15//15
f 9//9 15//15 23//23
f 9//9 7//7 15//15
f 10//10 9//9 23//23
f 12//12 17//17 23//23
f 24//24 11//11 13//13
f 16//16 24//24 13//13
f 16//16 13//13 14//14
f 15//15 22//22 16//16
f 15//15 6//6 22//22
f 14//14 13//13 23//23
f 13//13 12//12 23//23
f 23//23 15//15 14//14
f 22//22 24//24 16//16
f 21//21 17//17 11//11
f 20//20 11//11 19//19
f 17//17 21//21 8//8
f 20//20 2//2 11//11
