# Blender v2.73 (sub 0) OBJ File: ''
# www.blender.org
v 0.023495 -0.242819 0.044888
v -0.162848 -0.195647 0.062176
v -0.083288 -0.199323 -0.186556
v -0.065310 -0.168085 0.172565
v 0.166266 -0.068950 0.186089
v 0.075746 0.014862 0.265951
v -0.164495 0.004236 0.212160
v -0.223954 0.095552 -0.166503
v -0.129320 0.194175 0.133795
v -0.134626 0.238658 -0.044575
v 0.047227 0.262948 -0.018020
v -0.102367 0.135257 -0.373374
v 0.163258 0.154947 0.143844
v -0.088581 -0.018633 -0.553382
v 0.067578 0.018999 -0.548234
v -0.261287 -0.030996 -0.027651
v 0.260554 -0.015554 -0.007345
v 0.194555 -0.156901 0.067787
v 0.099796 -0.211613 -0.191965
v 0.225665 -0.029172 -0.282915
v -0.154553 -0.090177 -0.374726
v 0.201372 0.149844 -0.119580
v 0.109604 0.175039 -0.333577
vn -0.250600 -0.965800 -0.065900
vn 0.192600 -0.559900 0.805900
vn -0.193000 -0.323900 0.926200
vn -0.888300 0.438700 0.135800
vn -0.082000 0.948400 -0.306300
vn 0.058700 0.634900 0.770400
vn -0.158000 0.744500 -0.648600
vn -0.895300 0.421700 0.143600
vn -0.899500 0.298300 0.319200
vn 0.883600 0.098300 0.457800
vn -0.590300 -0.487600 0.643300
vn 0.723800 0.137300 0.676200
vn 0.775700 -0.612000 -0.154100
vn 0.277300 -0.732600 0.621700
vn -0.073100 -0.895100 -0.439800
vn 0.445900 -0.894700 0.025800
vn -0.070700 -0.985800 -0.152600
vn -0.210800 -0.878100 -0.429500
vn 0.286700 -0.734700 0.614800
vn -0.771000 -0.590700 -0.237900
vn 0.597000 -0.647800 -0.473300
vn 0.883500 -0.459900 -0.089100
vn 0.958400 0.252100 -0.133800
vn 0.899500 -0.219100 0.378000
vn -0.956900 -0.034200 -0.288400
vn 0.827600 0.364400 -0.426900
vn 0.855800 0.407200 -0.319000
vn 0.905000 0.407300 0.123000
vn -0.216700 0.406400 0.887600
vn -0.821300 0.401000 -0.405700
vn -0.043200 0.812100 -0.581900
vn 0.530200 0.838100 -0.128700
vn 0.621500 0.779800 0.074800
vn 0.097900 0.858800 0.502900
vn -0.163200 0.956100 0.243300
vn -0.690600 0.667700 -0.277800
vn -0.123900 0.949300 -0.289000
vn -0.941100 0.026200 -0.337000
vn -0.867400 -0.303300 0.394600
vn -0.733400 -0.670600 -0.111200
vn 0.213400 -0.811200 -0.544400
vn -0.191100 -0.899300 0.393400
s off
f 1//1 2//1 3//1
f 4//2 5//2 6//2
f 4//3 6//3 7//3
f 8//4 9//4 10//4
f 11//5 12//5 10//5
f 9//6 6//6 13//6
f 14//7 12//7 15//7
f 16//8 9//8 8//8
f 16//9 7//9 9//9
f 5//10 17//10 13//10
f 2//11 4//11 7//11
f 6//12 5//12 13//12
f 18//13 19//13 20//13
f 1//14 5//14 4//14
f 14//15 19//15 3//15
f 1//16 19//16 18//16
f 19//17 1//17 3//17
f 14//18 3//18 21//18
f 5//19 1//19 18//19
f 2//20 16//20 3//20
f 19//21 15//21 20//21
f 17//22 18//22 20//22
f 17//23 20//23 22//23
f 5//24 18//24 17//24
f 8//25 21//25 16//25
f 20//26 15//26 23//26
f 20//27 23//27 22//27
f 13//28 17//28 22//28
f 7//29 6//29 9//29
f 12//30 14//30 8//30
f 15//31 12//31 23//31
f 11//32 22//32 23//32
f 11//33 13//33 22//33
f 9//34 13//34 11//34
f 10//35 9//35 11//35
f 12//36 8//36 10//36
f 23//37 12//37 11//37
f 21//38 8//38 14//38
f 2//39 7//39 16//39
f 3//40 16//40 21//40
f 19//41 14//41 15//41
f 2//42 1//42 4//42
