# Blender v2.73 (sub 0) OBJ File: ''
# www.blender.org
v 0.023495 -0.242819 0.044888
v -0.162848 -0.195647 0.062176
v -0.083288 -0.199323 -0.186556
v -0.065310 -0.168085 0.172565
v 0.166266 -0.068950 0.186089
v 0.075746 0.014862 0.265951
v -0.164495 0.004236 0.212160
v -0.223954 0.095552 -0.166503
v -0.129320 0.194175 0.133795
v -0.134626 0.238658 -0.044575
v 0.047227 0.262948 -0.018020
v -0.102367 0.135257 -0.373374
v 0.163258 0.154947 0.143844
v -0.088581 -0.018633 -0.553382
v 0.067578 0.018999 -0.548234
v -0.261287 -0.030996 -0.027651
v 0.260554 -0.015554 -0.007345
v 0.194555 -0.156901 0.067787
v 0.099796 -0.211613 -0.191965
v 0.225665 -0.029172 -0.282915
v -0.154553 -0.090177 -0.374726
v 0.201372 0.149844 -0.119580
v 0.109604 0.175039 -0.333577
vn 0.109200 -0.965600 0.236000
vn -0.629800 -0.744300 0.222000
vn -0.384300 -0.889200 -0.248200
vn -0.169900 -0.669800 0.722800
vn 0.641400 -0.335400 0.689900
vn 0.221700 0.056200 0.973500
vn -0.634700 0.013100 0.772600
vn -0.913200 0.359600 -0.191600
vn -0.477100 0.692500 0.541100
vn -0.525300 0.850700 -0.019400
vn 0.200000 0.976700 0.078200
vn -0.466800 0.748100 -0.471600
vn 0.598600 0.598700 0.532100
vn -0.407500 -0.149300 -0.900900
vn 0.403600 0.048900 -0.913600
vn -0.990500 -0.124700 0.056900
vn 0.993400 -0.035000 0.109200
vn 0.695500 -0.655400 0.294400
vn 0.368800 -0.885500 -0.282500
vn 0.912000 -0.176900 -0.369900
vn -0.731700 -0.549400 -0.403500
vn 0.806600 0.583900 -0.091400
vn 0.427800 0.796200 -0.427700
s 1
f 1//1 2//2 3//3
f 4//4 5//5 6//6
f 4//4 6//6 7//7
f 8//8 9//9 10//10
f 11//11 12//12 10//10
f 9//9 6//6 13//13
f 14//14 12//12 15//15
f 16//16 9//9 8//8
f 16//16 7//7 9//9
f 5//5 17//17 13//13
f 2//2 4//4 7//7
f 6//6 5//5 13//13
f 18//18 19//19 20//20
f 1//1 5//5 4//4
f 14//14 19//19 3//3
f 1//1 19//19 18//18
f 19//19 1//1 3//3
f 14//14 3//3 21//21
f 5//5 1//1 18//18
f 2//2 16//16 3//3
f 19//19 15//15 20//20
f 17//17 18//18 20//20
f 17//17 20//20 22//22
f 5//5 18//18 17//17
f 8//8 21//21 16//16
f 20//20 15//15 23//23
f 20//20 23//23 22//22
f 13//13 17//17 22//22
f 7//7 6//6 9//9
f 12//12 14//14 8//8
f 15//15 12//12 23//23
f 11//11 22//22 23//23
f 11//11 13//13 22//22
f 9//9 13//13 11//11
f 10//10 9//9 11//11
f 12//12 8//8 10//10
f 23//23 12//12 11//11
f 21//21 8//8 14//14
f 2//2 7//7 16//16
f 3//3 16//16 21//21
f 19//19 14//14 15//15
f 2//2 1//1 4//4
