# Blender v2.73 (sub 0) OBJ File: ''
# www.blender.org
v 0.127859 -1.860720 0.024316
v 0.505476 -1.563965 0.758007
v -0.160161 -1.728164 0.489584
v 1.232184 -0.712076 1.672393
v 0.994264 -1.190466 1.168286
v 1.251936 -1.171925 0.338931
v -0.274033 -1.652871 -0.429040
v 1.534754 0.116366 1.153517
v -0.407322 -0.866017 -2.073776
v -0.747170 -0.938120 -1.412103
v -0.666208 -0.359998 -1.744764
v 1.701858 -0.951624 -2.048405
v 1.101087 -0.911007 -2.328125
v 1.669216 -0.221521 -2.741364
v 0.013555 -0.403937 -2.308854
v -1.943097 0.566484 0.831199
v -1.107920 0.712111 1.403649
v -1.400285 1.224059 0.435675
v -1.618873 0.739627 -0.995308
v -1.781301 0.907279 -0.231341
v -0.877877 1.504496 -0.656967
v 1.210474 0.780764 -2.460772
v 0.211922 0.904943 -2.167435
v 0.347649 1.344628 -1.500445
v 1.820329 0.900979 -0.363815
v 1.696603 0.757280 -1.025254
v 1.406705 1.131429 -0.237774
v 1.615546 0.838052 -1.828023
v 1.295108 1.094692 -1.066376
v -1.047812 1.797189 0.501182
v -0.176044 2.133476 -0.013057
v -2.014759 0.948558 0.044280
v -0.805485 1.515451 0.968647
v 1.033559 1.177653 1.538097
v 0.690338 1.426000 1.409693
v 2.018354 -0.024848 -1.960617
v 1.354126 0.305435 -2.751290
v 0.405287 0.050755 -2.760341
v -0.292540 0.093367 -2.107385
v 0.587362 0.359608 -2.688500
v -1.376011 -0.273051 1.713532
v -1.989305 0.370362 1.005525
v -0.948055 -0.080317 2.123558
v 0.019889 0.148784 2.537838
v 0.098901 0.536197 2.394774
v -0.251365 0.942519 2.036360
v 0.941331 0.290051 2.603768
v 1.057710 0.515995 1.986309
v 0.689264 0.653965 2.431376
v 0.355694 -0.880648 -2.117125
v 0.545863 -0.488721 -2.591359
v -0.985119 0.015323 -1.800213
v -1.296131 -0.266635 -1.185921
v -1.240048 0.407906 -1.156178
v -1.279495 -1.158672 -0.952715
v -1.305592 -1.124617 -0.391432
v -1.808151 -0.726526 -0.440200
v -2.248565 -0.490880 0.718417
v -1.765252 -0.337859 1.217965
v -1.680405 -1.071301 0.874602
v -0.857355 -0.794355 1.776853
v -1.412843 -0.667104 1.115524
v 0.276867 -0.863890 2.201088
v 0.851196 -0.713894 1.872009
v 1.842643 -0.821938 -0.730552
v 1.855620 0.363255 0.154971
v 0.773717 -1.624717 -0.963019
v 0.480252 -1.427580 -1.357375
v 1.283852 -1.240888 -1.553034
v -0.394767 -1.640430 -0.778801
v -0.417453 -1.439792 -1.097564
v -0.890105 -1.598641 0.272252
v -1.325618 -1.415188 0.065394
v -1.184528 -1.593089 0.586757
v 1.041917 -1.237738 -0.359828
v 1.743874 -1.112290 -1.230168
v 0.449140 -0.986730 1.372233
v -0.019127 -1.345547 1.235691
v -0.029833 -0.745617 1.989541
v -1.968003 -0.953063 0.194093
v 0.357867 0.967659 2.392208
v -1.976577 -0.190530 -0.614557
v 1.195574 -0.561261 -2.705826
v -0.779543 1.152662 1.616583
v -0.728995 0.845260 -1.467511
v 1.066412 1.544703 -0.205936
v 0.506828 1.808994 1.013656
v 0.286998 1.765684 0.432480
v 0.150668 1.749224 -0.731461
vn 0.059100 -0.998100 0.013400
vn 0.308800 -0.887200 0.342800
vn -0.148000 -0.944400 0.293400
vn 0.737600 -0.473600 0.481200
vn 0.414200 -0.805200 0.424300
vn 0.689200 -0.713200 0.127200
vn -0.102800 -0.987400 -0.119800
vn 0.940000 0.010800 0.341000
vn -0.496200 -0.443700 -0.746200
vn -0.629500 -0.464700 -0.622600
vn -0.643800 -0.266600 -0.717200
vn 0.630600 -0.671700 -0.388700
vn 0.039600 -0.792100 -0.609100
vn 0.580100 -0.102300 -0.808000
vn -0.510300 -0.264900 -0.818100
vn -0.751900 0.533300 0.387600
vn -0.638600 0.468500 0.610500
vn -0.697300 0.612800 0.371700
vn -0.695300 0.331000 -0.637900
vn -0.684800 0.620200 -0.382500
vn -0.450400 0.770000 -0.451900
vn 0.288100 0.731300 -0.618100
vn -0.357000 0.644800 -0.675800
vn 0.009000 0.890200 -0.455500
vn 0.856700 0.509200 -0.082200
vn 0.821800 0.566100 -0.063700
vn 0.630200 0.776200 -0.016800
vn 0.643700 0.725900 -0.242300
vn 0.517200 0.835400 -0.185900
vn -0.533300 0.797300 0.282800
vn 0.085300 0.996000 -0.024700
vn -0.754300 0.637900 -0.155000
vn -0.416000 0.747000 0.518500
vn 0.684900 0.626700 0.371700
vn 0.534000 0.761500 0.367300
vn 0.969900 0.098800 -0.222500
vn 0.333100 0.330500 -0.883000
vn -0.380600 0.065500 -0.922400
vn -0.449300 -0.437100 -0.779200
vn -0.227800 0.406800 -0.884600
vn -0.700100 -0.183600 0.690000
vn -0.799800 0.339300 0.495200
vn -0.548900 -0.006000 0.835800
vn -0.261300 -0.004300 0.965200
vn -0.298200 0.324500 0.897600
vn -0.414600 0.592300 0.690800
vn 0.549900 0.115800 0.827100
vn 0.872500 0.274200 0.404400
vn 0.344700 0.494700 0.797800
vn -0.195800 -0.726200 -0.659000
vn -0.280200 -0.491200 -0.824700
vn -0.675300 -0.063000 -0.734900
vn -0.720900 -0.153700 -0.675700
vn -0.651600 0.062500 -0.755900
vn -0.592100 -0.682500 -0.428500
vn -0.524600 -0.818100 -0.235700
vn -0.761800 -0.493500 -0.419600
vn -0.934100 -0.230500 0.272400
vn -0.649100 -0.305200 0.696800
vn -0.610600 -0.623400 0.488400
vn -0.367100 -0.613400 0.699200
vn -0.571900 -0.349800 0.742000
vn -0.038400 -0.719100 0.693800
vn 0.355500 -0.727300 0.587100
vn 0.875700 -0.453300 0.166400
vn 0.962700 0.125000 0.239700
vn 0.313000 -0.938900 -0.143100
vn -0.069100 -0.881600 -0.466800
vn 0.268600 -0.932700 -0.240500
vn -0.222800 -0.933500 -0.280800
vn -0.299600 -0.818600 -0.489900
vn -0.200600 -0.977400 -0.066400
vn -0.426200 -0.840800 -0.333600
vn -0.347800 -0.918900 0.185900
vn 0.526800 -0.846000 0.081700
vn 0.717100 -0.697000 0.004200
vn 0.248200 -0.841900 0.479100
vn 0.053700 -0.842400 0.536100
vn -0.402700 -0.597600 0.693300
vn -0.786000 -0.596100 -0.163900
vn -0.010900 0.574100 0.818700
vn -0.851000 -0.121400 -0.510800
vn 0.073800 -0.438700 -0.895600
vn -0.518800 0.576400 0.631300
vn -0.491000 0.553900 -0.672300
vn 0.567400 0.821900 -0.049200
vn 0.253900 0.930500 0.263900
vn 0.151900 0.985900 0.070200
vn 0.241900 0.909200 -0.338800
s 1
f 1//1 2//2 3//3
f 4//4 5//5 6//6
f 1//1 3//3 7//7
f 4//4 6//6 8//8
f 9//9 10//10 11//11
f 12//12 13//13 14//14
f 9//9 11//11 15//15
f 16//16 17//17 18//18
f 19//19 20//20 21//21
f 22//22 23//23 24//24
f 25//25 26//26 27//27
f 28//28 22//22 29//29
f 21//21 30//30 31//31
f 21//21 20//20 30//30
f 32//32 16//16 18//18
f 30//30 33//33 31//31
f 34//34 25//25 35//35
f 36//36 28//28 26//26
f 14//14 37//37 28//28
f 38//38 39//39 40//40
f 41//41 17//17 42//42
f 41//41 43//43 17//17
f 44//44 45//45 46//46
f 47//47 48//48 49//49
f 13//13 50//50 51//51
f 52//52 53//53 54//54
f 55//55 56//56 57//57
f 58//58 59//59 42//42
f 58//58 60//60 59//59
f 60//60 61//61 62//62
f 44//44 47//47 45//45
f 63//63 64//64 47//47
f 8//8 65//65 66//66
f 67//67 68//68 69//69
f 70//70 71//71 50//50
f 72//72 73//73 56//56
f 72//72 74//74 73//73
f 65//65 75//75 76//76
f 65//65 6//6 75//75
f 2//2 5//5 77//77
f 77//77 64//64 63//63
f 77//77 5//5 64//64
f 5//5 4//4 64//64
f 78//78 77//77 63//63
f 78//78 2//2 77//77
f 78//78 79//79 61//61
f 78//78 63//63 79//79
f 75//75 1//1 67//67
f 2//2 1//1 75//75
f 6//6 2//2 75//75
f 76//76 69//69 12//12
f 76//76 75//75 69//69
f 75//75 67//67 69//69
f 74//74 61//61 60//60
f 74//74 78//78 61//61
f 72//72 78//78 74//74
f 73//73 60//60 80//80
f 73//73 74//74 60//60
f 73//73 80//80 56//56
f 71//71 56//56 55//55
f 71//71 70//70 56//56
f 70//70 72//72 56//56
f 71//71 10//10 9//9
f 71//71 55//55 10//10
f 71//71 9//9 50//50
f 68//68 50//50 13//13
f 68//68 70//70 50//50
f 69//69 13//13 12//12
f 69//69 68//68 13//13
f 65//65 12//12 36//36
f 65//65 76//76 12//12
f 66//66 65//65 36//36
f 66//66 26//26 25//25
f 66//66 36//36 26//26
f 47//47 64//64 4//4
f 44//44 63//63 47//47
f 45//45 49//49 81//81
f 45//45 47//47 49//49
f 62//62 61//61 41//41
f 59//59 62//62 41//41
f 59//59 60//60 62//62
f 59//59 41//41 42//42
f 56//56 80//80 57//57
f 53//53 57//57 82//82
f 53//53 55//55 57//57
f 54//54 82//82 19//19
f 54//54 53//53 82//82
f 51//51 15//15 38//38
f 51//51 50//50 15//15
f 50//50 9//9 15//15
f 14//14 51//51 38//38
f 14//14 83//83 51//51
f 83//83 13//13 51//51
f 37//37 40//40 22//22
f 37//37 14//14 40//40
f 14//14 38//38 40//40
f 8//8 25//25 34//34
f 8//8 66//66 25//25
f 48//48 8//8 34//34
f 49//49 34//34 81//81
f 49//49 48//48 34//34
f 45//45 81//81 46//46
f 17//17 46//46 84//84
f 17//17 43//43 46//46
f 43//43 44//44 46//46
f 42//42 17//17 16//16
f 58//58 16//16 32//32
f 58//58 42//42 16//16
f 82//82 58//58 32//32
f 82//82 20//20 19//19
f 82//82 32//32 20//20
f 52//52 54//54 85//85
f 54//54 19//19 85//85
f 40//40 52//52 85//85
f 40//40 39//39 52//52
f 40//40 23//23 22//22
f 40//40 85//85 23//23
f 28//28 37//37 22//22
f 36//36 14//14 28//28
f 35//35 27//27 86//86
f 35//35 25//25 27//27
f 87//87 35//35 86//86
f 87//87 86//86 88//88
f 46//46 81//81 87//87
f 33//33 46//46 87//87
f 33//33 84//84 46//46
f 31//31 33//33 88//88
f 33//33 87//87 88//88
f 30//30 20//20 18//18
f 20//20 32//32 18//18
f 85//85 19//19 21//21
f 24//24 85//85 21//21
f 89//89 24//24 31//31
f 24//24 21//21 31//31
f 29//29 22//22 24//24
f 86//86 29//29 24//24
f 88//88 89//89 31//31
f 88//88 86//86 89//89
f 86//86 24//24 89//89
f 27//27 29//29 86//86
f 27//27 26//26 29//29
f 26//26 28//28 29//29
f 23//23 85//85 24//24
f 18//18 33//33 30//30
f 18//18 17//17 33//33
f 17//17 84//84 33//33
f 81//81 35//35 87//87
f 81//81 34//34 35//35
f 12//12 14//14 36//36
f 15//15 39//39 38//38
f 15//15 11//11 39//39
f 11//11 52//52 39//39
f 57//57 58//58 82//82
f 57//57 80//80 58//58
f 41//41 61//61 43//43
f 61//61 44//44 43//43
f 4//4 48//48 47//47
f 4//4 8//8 48//48
f 14//14 13//13 83//83
f 11//11 53//53 52//52
f 11//11 10//10 53//53
f 10//10 55//55 53//53
f 80//80 60//60 58//58
f 61//61 79//79 44//44
f 79//79 63//63 44//44
f 8//8 6//6 65//65
f 1//1 68//68 67//67
f 1//1 7//7 68//68
f 7//7 70//70 68//68
f 7//7 72//72 70//70
f 7//7 3//3 72//72
f 3//3 78//78 72//72
f 5//5 2//2 6//6
f 3//3 2//2 78//78
