# Blender v2.73 (sub 0) OBJ File: ''
# www.blender.org
v 0.000000 -1.000000 -0.000000
v 0.723600 -0.447215 0.525720
v -0.276385 -0.447215 0.850640
v 0.723600 -0.447215 -0.525720
v -0.894425 -0.447215 -0.000000
v -0.276385 -0.447215 -0.850640
v 0.894425 0.447215 0.000000
v 0.276385 0.447215 0.850640
v -0.723600 0.447215 0.525720
v -0.723600 0.447215 -0.525720
v 0.276385 0.447215 -0.850640
v 0.000000 1.000000 0.000000
vn 0.000000 -1.000000 0.000000
vn 0.723600 -0.447200 0.525700
vn -0.276400 -0.447200 0.850600
vn 0.723600 -0.447200 -0.525700
vn -0.894400 -0.447200 0.000000
vn -0.276400 -0.447200 -0.850600
vn 0.894400 0.447200 0.000000
vn 0.276400 0.447200 0.850600
vn -0.723600 0.447200 0.525700
vn -0.723600 0.447200 -0.525700
vn 0.276400 0.447200 -0.850600
vn 0.000000 1.000000 0.000000
s 1
f 1//1 2//2 3//3
f 2//2 1//1 4//4
f 1//1 3//3 5//5
f 1//1 5//5 6//6
f 1//1 6//6 4//4
f 2//2 4//4 7//7
f 3//3 2//2 8//8
f 5//5 3//3 9//9
f 6//6 5//5 10//10
f 4//4 6//6 11//11
f 2//2 7//7 8//8
f 3//3 8//8 9//9
f 5//5 9//9 10//10
f 6//6 10//10 11//11
f 4//4 11//11 7//7
f 8//8 7//7 12//12
f 9//9 8//8 12//12
f 10//10 9//9 12//12
f 11//11 10//10 12//12
f 7//7 11//11 12//12
